<svg height="453pt" fill="white" viewBox="0 -1 453.26867 453" width="453pt" xmlns="http://www.w3.org/2000/svg"><path d="m443.753906.277344-88.773437 17.097656c-24.632813 4.71875-47.28125 16.734375-65 34.492188l-24.921875 24.921874-166.929688 4.445313c-30.042968.75-58.640625 13.046875-79.859375 34.328125l-10.683593 10.679688c-3.125 3.125-3.125 8.1875 0 11.3125l36.601562 36.601562-41.84375 41.839844c-3.125 3.125-3.125 8.191406 0 11.316406 3.125 3.121094 8.1875 3.121094 11.3125 0l41.839844-41.84375 13.363281 13.363281-25.386719 25.390625c-3.125 3.125-3.128906 8.191406-.003906 11.316406s8.191406 3.128907 11.316406.003907l25.390625-25.390625 25.757813 25.757812-33.390625 33.390625c-3.125 3.125-3.125 8.1875 0 11.3125l1.214843 1.21875-19.8125 18.753907c-1.566406 1.484374-2.46875 3.542968-2.496093 5.699218-.03125 2.160156.8125 4.242188 2.339843 5.769532l22.460938 22.457031c-26.476562-3.089844-50.539062 15.617187-54.070312 42.035156l-6.953126 52.644531c-.328124 2.46875.511719 4.945313 2.273438 6.707032 1.757812 1.757812 4.238281 2.597656 6.703125 2.273437l52.648437-6.953125c26.417969-3.53125 45.125-27.59375 42.035157-54.070312l22.457031 22.457031c1.5 1.496093 3.535156 2.335937 5.65625 2.335937h.109375c2.164063-.015625 4.226563-.917968 5.703125-2.5l18.753906-19.8125 1.21875 1.21875c3.121094 3.125 8.1875 3.125 11.3125 0l33.390625-33.390625 24.117188 24.117188-25.390625 25.386719c-3.125 3.125-3.125 8.191406 0 11.320312 3.125 3.125 8.191406 3.125 11.320312 0l25.386719-25.390625 13.367187 13.363281-41.84375 41.84375c-2.058593 2.011719-2.875 4.976563-2.140624 7.757813.734374 2.785156 2.910156 4.960937 5.691406 5.695312 2.785156.734375 5.75-.082031 7.761718-2.140625l41.84375-41.839844 38.242188 38.242188c3.125 3.125 8.1875 3.125 11.3125 0l10.675781-10.683594c21.285157-21.214844 33.578125-49.816406 34.332031-79.855468l4.445313-166.929688 24.925781-24.925781c17.753906-17.714844 29.773438-40.363281 34.488282-65l17.101562-88.769531c.5-2.609376-.320312-5.292969-2.199219-7.171876-1.878906-1.875-4.5625-2.699218-7.171875-2.199218zm-342.300781 393.15625c-3.875 11.882812-14.292969 20.4375-26.699219 21.921875l-42.300781 5.585937 5.589844-42.300781c1.484375-12.40625 10.039062-22.824219 21.917969-26.699219 3.472656-1.1875 7.113281-1.800781 10.785156-1.8125 8.605468.027344 16.839844 3.507813 22.855468 9.660156 8.945313 8.730469 12.007813 21.859376 7.847657 33.644532zm-9.960937-194.597656 37.328124-37.332032c3.125-3.125 3.125-8.1875 0-11.3125-3.121093-3.125-8.1875-3.125-11.3125 0l-37.328124 37.328125-13.367188-13.363281 37.328125-37.332031c3.125-3.121094 3.125-8.1875 0-11.3125s-8.1875-3.125-11.3125 0l-37.332031 37.332031-30.941406-30.941406 5.027343-5.027344c18.324219-18.378906 43.023438-29 68.96875-29.648438l150.0625-3.996093-131.363281 131.363281zm55.351562 183.644531-75.925781-75.925781 14.160156-13.402344 75.171875 75.167968zm209.328125-27.636719c-.652344 25.945312-11.269531 50.644531-29.652344 68.96875l-5.023437 5.023438-32.585938-32.585938 37.328125-37.328125c3.125-3.125 3.125-8.191406 0-11.316406-3.121093-3.121094-8.1875-3.121094-11.3125 0l-37.328125 37.335937-13.363281-13.363281 37.328125-37.332031c3.066406-3.132813 3.039062-8.148438-.0625-11.25-3.097656-3.097656-8.117188-3.125-11.25-.0625l-37.328125 37.332031-24.117187-24.117187 131.359374-131.363282zm64.140625-259.457031c-4.117188 21.496093-14.601562 41.253906-30.09375 56.714843l-95.027344 95.023438-83.359375 83.363281-33.390625 33.390625-1.375-1.375-43.085937-43.089844-44.464844-44.460937 70.59375-70.59375 114.003906-114 27.179688-27.179687c15.457031-15.492188 35.21875-25.980469 56.714843-30.09375l77.167969-14.863282zm0 0"/><path d="m299.003906 75.742188-24.671875 24.679687c-12.210937 12.207031-12.210937 32.007813 0 44.214844l14.132813 14.136719c.8125 2.070312 2.449218 3.707031 4.519531 4.515624l15.78125 15.78125c12.214844 12.191407 32 12.191407 44.214844 0l24.679687-24.679687c12.210938-12.207031 12.210938-32.007813 0-44.214844l-34.4375-34.433593c-12.21875-12.191407-32-12.191407-44.21875 0zm-17.832031 46.785156c-.011719-4.050782 1.597656-7.9375 4.46875-10.792969l24.679687-24.679687c5.964844-5.949219 15.621094-5.949219 21.589844 0l10.734375 10.738281-46.265625 46.265625-10.738281-10.734375c-2.871094-2.859375-4.480469-6.746094-4.46875-10.796875zm85.167969-1.039063c5.964844 5.960938 5.964844 15.628907 0 21.589844l-24.675782 24.675781c-5.964843 5.953125-15.625 5.953125-21.589843 0l-12.382813-12.378906 46.269532-46.269531zm0 0"/><path d="m170.480469 215.582031c-3.125-3.125-8.191407-3.125-11.316407 0s-3.125 8.191407 0 11.316407l67.335938 67.332031c3.128906 3.09375 8.167969 3.078125 11.28125-.03125 3.109375-3.113281 3.125-8.152344.035156-11.28125zm0 0"/><path d="m145.800781 240.261719c-3.132812-3.066407-8.148437-3.039063-11.25.0625-3.097656 3.097656-3.128906 8.117187-.0625 11.25l67.335938 67.335937c2.007812 2.078125 4.984375 2.914063 7.78125 2.179688s4.980469-2.917969 5.710937-5.714844c.730469-2.796875-.101562-5.769531-2.183594-7.777344zm0 0"/></svg>